<svg id="Calque_1" data-name="Calque 1" xmlns="http://www.w3.org/2000/svg" viewBox="0 0 117.41 117.42"><defs><style>.cls-1{fill:#82368c;}.cls-2{fill:#f7a600;}.cls-3{fill:#fff;}</style></defs><path class="cls-1" d="M131.28,87.84l-.24,0H111.62v20.4a43.47,43.47,0,0,1,49,8.58,41.57,41.57,0,0,1,12.64,30.55c0,.77,0,1.54,0,2.29v55.57h16.66V147.1l0-.55A58.7,58.7,0,0,0,131.28,87.84Z" transform="translate(-72.58 -87.84)"/><path class="cls-1" d="M151.7,184.88a44.23,44.23,0,0,1-21.57,5.7C102.65,191.16,90,163.42,90,163.42V87.86H72.62V146l0,.56a58.7,58.7,0,0,0,58.7,58.7H151.7Z" transform="translate(-72.58 -87.84)"/><circle class="cls-2" cx="58.7" cy="58.23" r="21.65"/><path class="cls-3" d="M147.52,144.16a7.35,7.35,0,1,1-5.92-5.6A7.35,7.35,0,0,1,147.52,144.16Z" transform="translate(-72.58 -87.84)"/></svg>