<svg id="Calque_1" data-name="Calque 1" xmlns="http://www.w3.org/2000/svg" viewBox="0 0 217.15 74.89"><defs><style>.cls-1{fill:#82368c;}.cls-2{fill:#f7a600;}.cls-3{fill:#fff;}</style></defs><path class="cls-1" d="M245.06,137.79a12.55,12.55,0,0,1-5.44,1.19,12.7,12.7,0,0,1-12.69-12.69V114.5h6.34v11.79a6.07,6.07,0,0,0,1.87,4.49,6.35,6.35,0,0,0,9,0,6,6,0,0,0,.94-1.19V114.47h6.35v23.17a12.22,12.22,0,0,1-12.22,12.22v-6.35a5.69,5.69,0,0,0,4.17-1.74A5.55,5.55,0,0,0,245.06,137.79Z" transform="translate(-35.08 -108.16)"/><path class="cls-1" d="M113.62,114.8A12.7,12.7,0,0,1,128,135.26a12.5,12.5,0,0,1-9,3.72c-8.08.17-11.78-8-11.78-8V108.16h6.35Zm0,14.79a6,6,0,0,0,.94,1.19,6.34,6.34,0,0,0,9,0,6,6,0,0,0,1.87-4.49,6.36,6.36,0,0,0-10.84-4.5,8.52,8.52,0,0,0-.94,1.2Z" transform="translate(-35.08 -108.16)"/><path class="cls-1" d="M184.33,108.16h6.34V131a12.73,12.73,0,0,1-6.28,6.79c-.11.05,0,0,0,0a12.43,12.43,0,0,1-5.44,1.19,12.69,12.69,0,1,1,5.44-24.18Zm0,14.83a9.42,9.42,0,0,0-1-1.2,6.37,6.37,0,0,0-10.84,4.5,6,6,0,0,0,1.87,4.49,6.34,6.34,0,0,0,9,0,6.45,6.45,0,0,0,1-1.19Z" transform="translate(-35.08 -108.16)"/><path class="cls-1" d="M214.33,108.16h6.35V131a12.73,12.73,0,0,1-6.28,6.79c-.11.05-.06,0-.06,0a12.39,12.39,0,0,1-5.44,1.19,12.69,12.69,0,1,1,5.44-24.18Zm0,14.83a8.61,8.61,0,0,0-1-1.2,6.3,6.3,0,1,0,1,7.8Z" transform="translate(-35.08 -108.16)"/><path class="cls-1" d="M149,139a12.7,12.7,0,0,1-12.69-12.69V114.5h6.34v11.79a6.07,6.07,0,0,0,1.87,4.49,6.13,6.13,0,0,0,4.48,1.86m-.79,0a6.1,6.1,0,0,0,4.47-1.86,6,6,0,0,0,1.87-4.49V114.5h6.35v11.79A12.7,12.7,0,0,1,148.18,139" transform="translate(-35.08 -108.16)"/><path class="cls-2" d="M128.73,171.27v-2.9a12.37,12.37,0,0,1-9.06,3.81,12.7,12.7,0,1,1,0-25.39,12.37,12.37,0,0,1,9.06,3.81,14.1,14.1,0,0,1,2.72,4.2v16.47a11.75,11.75,0,0,1-11.78,11.78v-2.71a9,9,0,0,0,9.06-9.07Zm0-16a10.7,10.7,0,0,0-2-2.83,10,10,0,1,0,0,14.11,10.21,10.21,0,0,0,2-2.79Z" transform="translate(-35.08 -108.16)"/><path class="cls-2" d="M168.62,171.27m2.71-22.19a9.48,9.48,0,0,1,6.35-2.29,9.72,9.72,0,0,1,7.08,2.91,12.6,12.6,0,0,1,1.08,1.3,10.66,10.66,0,0,1,1.12-1.3,10,10,0,0,1,17,7.06v14.51h-2.72V156.76a7.25,7.25,0,0,0-12.36-5.14,7.79,7.79,0,0,0-1.24,1.59v18.06h-2.72V156.76a7.25,7.25,0,0,0-12.36-5.14,7.79,7.79,0,0,0-1.24,1.59" transform="translate(-35.08 -108.16)"/><path class="cls-2" d="M215.17,167.46a10.06,10.06,0,0,0,13.1-.94l1.92,1.92a12.68,12.68,0,1,1,0-17.95c.31.35.62.69.91,1Zm12.08-15.92a10,10,0,0,0-14,14Z" transform="translate(-35.08 -108.16)"/><path class="cls-2" d="M236.53,167.68a13.51,13.51,0,0,0,6.57,1.77,8.31,8.31,0,0,0,4.64-1.16,3.68,3.68,0,0,0,.94-5.47,4.77,4.77,0,0,0-2.68-1.38l-5.08-1.23a8.6,8.6,0,0,1-4.26-2.54,6.35,6.35,0,0,1,.78-8.83,8.79,8.79,0,0,1,5.87-2.05,13.12,13.12,0,0,1,8.63,2.87l-2.1,1.81a11.18,11.18,0,0,0-6.49-2,6.17,6.17,0,0,0-4,1.29,3.64,3.64,0,0,0-1.38,2.81,3.51,3.51,0,0,0,.87,2.38,5.42,5.42,0,0,0,2.68,1.5l5.33,1.38a7.43,7.43,0,0,1,4,2.26,6.34,6.34,0,0,1-1.14,9.11,10.62,10.62,0,0,1-6.56,1.94,15.73,15.73,0,0,1-8.38-2.36Z" transform="translate(-35.08 -108.16)"/><path class="cls-2" d="M177.56,149.54a7.24,7.24,0,0,0-7.25,7.25v14.5h-2.73v-14.5a10,10,0,0,1,10-10" transform="translate(-35.08 -108.16)"/><path class="cls-2" d="M161.27,155c-.05,2.12,0,16.25,0,16.25h-2.72v-2.9a12.69,12.69,0,0,1-18,.09,12.7,12.7,0,0,1,9-21.67,12.37,12.37,0,0,1,9.06,3.81A9.61,9.61,0,0,1,161.27,155Zm-2.72.22a10.7,10.7,0,0,0-2-2.83,10,10,0,1,0,0,14.11,10.21,10.21,0,0,0,2-2.79Z" transform="translate(-35.08 -108.16)"/><path class="cls-1" d="M76,159a22.69,22.69,0,0,1-11.15,3c-14.21.31-20.73-14-20.73-14V108.82h-9v30.06l0,.28a30.35,30.35,0,0,0,30.35,30.36H76Z" transform="translate(-35.08 -108.16)"/><path class="cls-1" d="M65.43,108.81H55.27v10.55a22.46,22.46,0,0,1,25.36,4.44,21.52,21.52,0,0,1,6.54,15.8c0,.39,0,.79,0,1.18v28.73h8.61V139.45l0-.29A30.35,30.35,0,0,0,65.43,108.81Z" transform="translate(-35.08 -108.16)"/><circle class="cls-2" cx="30.36" cy="31.07" r="11.2"/><path class="cls-3" d="M73.83,138.25a3.8,3.8,0,1,1-3.06-2.9A3.8,3.8,0,0,1,73.83,138.25Z" transform="translate(-35.08 -108.16)"/></svg>